<svg width="1400" height="920" version="1.1" viewBox="0 0 370.42 243.42" xmlns="http://www.w3.org/2000/svg" xmlns:xlink="http://www.w3.org/1999/xlink">
 <defs>
  <linearGradient id="linearGradient11826">
   <stop style="stop-color:#9700ff" offset="0"/>
   <stop style="stop-color:#00a3c1" offset="1"/>
  </linearGradient>
  <linearGradient id="linearGradient752" x1="46.448" x2="97.642" y1="79.658" y2="127.01" gradientTransform="matrix(1.6841 .0094322 -.0094322 1.6841 -30.488 -65.803)" gradientUnits="userSpaceOnUse" xlink:href="#linearGradient11826"/>
  <linearGradient id="linearGradient3647" x1="74.992" x2="119.16" y1="82.289" y2="118.8" gradientTransform="matrix(1.6841 .0094322 -.0094322 1.6841 -36.727 -66.529)" gradientUnits="userSpaceOnUse" xlink:href="#linearGradient11826"/>
  <linearGradient id="linearGradient3699" x1="141.72" x2="106.34" y1="119.2" y2="84.958" gradientTransform="matrix(1.6841 .0094322 -.0094322 1.6841 -60.451 -63.817)" gradientUnits="userSpaceOnUse">
   <stop style="stop-color:#5f00b4" offset="0"/>
   <stop style="stop-color:#00a3c1" offset="1"/>
  </linearGradient>
 </defs>
 <rect x="-2.9331e-7" y="3.882e-7" width="423.33" height="423.33" style="display:none;fill:#1b1b1b;stroke-width:.56003"/>
 <g transform="translate(-26.458 -89.958)">
  <g transform="matrix(2.2866 -.11346 .11346 2.2866 -33.417 -10.855)">
   <path d="m172.23 133.24s-7.8201-32.424-49.407-49.091c0 0-0.99329 14.667 14.275 22.991 13.779 7.5121 16.357 23.155 8.9658 25.702-10.945 3.7718 26.166 0.39836 26.166 0.39836z" style="fill:url(#linearGradient3699);stroke-width:.44559"/>
   <path d="m33.176 47.247s-5.5983 86.913 68.51 105.89c23.385 5.9885 49.855-8.1881 49.855-8.1881s-22.798 4.6802-42.713-8.6008c-37.668-25.119-29.435-56.705-45.302-72.676-14.854-14.952-30.35-16.426-30.35-16.426z" style="fill:url(#linearGradient752);stroke-width:.44559"/>
   <path d="m82.561 64.872s0.79347 46.066 30.969 64.672c31.005 19.117 58.701 3.6991 58.701 3.6991s-20.933 0.0108-33.165-8.9133c-17.917-13.071-23.955-27.02-29.884-41.167-6.182-14.751-26.621-18.291-26.621-18.291z" style="fill:url(#linearGradient3647);stroke-width:.33338"/>
  </g>
 </g>
</svg>
