<?xml version="1.0" encoding="UTF-8" standalone="no"?>
<!DOCTYPE svg PUBLIC "-//W3C//DTD SVG 1.1//EN" "http://www.w3.org/Graphics/SVG/1.1/DTD/svg11.dtd">
<svg width="100%" height="100%" viewBox="0 0 800 250" version="1.1" xmlns="http://www.w3.org/2000/svg" xmlns:xlink="http://www.w3.org/1999/xlink" xml:space="preserve" xmlns:serif="http://www.serif.com/" style="fill-rule:evenodd;clip-rule:evenodd;stroke-linejoin:round;stroke-miterlimit:2;">
    <g transform="matrix(9.93192,0,0,9.93192,-1428.78,-2883.65)">
        <path d="M144.674,299.192L144.775,299.046L145.18,299.046L147.025,306.314L147.194,306.314L149.106,299.969L149.657,299.969L151.559,306.314L151.739,306.314L153.572,299.046L153.977,299.046L154.079,299.192L152.132,306.808L151.176,306.808L149.376,300.655L147.576,306.808L146.631,306.808L144.674,299.192Z" style="fill:url(#_Linear1);fill-rule:nonzero;"/>
        <path d="M158.938,306.808C157.858,306.808 157.318,306.261 157.318,305.166C157.318,304.071 157.858,303.524 158.938,303.524L161.301,303.524L161.301,302.511C161.301,301.814 160.952,301.465 160.255,301.465L157.836,301.465L157.836,301.251L158.151,301.015L160.21,301.015C161.275,301.015 161.807,301.551 161.807,302.624L161.807,306.808L158.938,306.808ZM157.825,305.312C157.825,306.01 158.173,306.359 158.871,306.359L161.301,306.359L161.301,303.974L158.871,303.974C158.173,303.974 157.825,304.322 157.825,305.02L157.825,305.312Z" style="fill:url(#_Linear2);fill-rule:nonzero;"/>
        <path d="M165.204,301.127L165.272,301.015L165.711,301.015L167.623,306.359L167.916,306.359L169.828,301.015L170.267,301.015L170.334,301.127L168.264,306.808L167.286,306.808L165.204,301.127Z" style="fill:url(#_Linear3);fill-rule:nonzero;"/>
        <path d="M173.687,305.2L173.687,302.624C173.687,301.551 174.223,301.015 175.295,301.015L176.758,301.015C177.823,301.015 178.355,301.551 178.355,302.624L178.355,304.12L174.193,304.12L174.193,305.312C174.193,306.01 174.542,306.359 175.239,306.359L178.13,306.359L178.13,306.572L177.815,306.808L175.295,306.808C174.223,306.808 173.687,306.272 173.687,305.2ZM174.193,303.67L177.849,303.67L177.849,302.511C177.849,301.814 177.5,301.465 176.803,301.465L175.239,301.465C174.542,301.465 174.193,301.814 174.193,302.511L174.193,303.67Z" style="fill:url(#_Linear4);fill-rule:nonzero;"/>
        <path d="M182.54,306.808L182.54,299.046L185.634,299.046C187.359,299.046 188.221,299.912 188.221,301.645L188.221,304.21C188.221,305.942 187.359,306.808 185.634,306.808L182.54,306.808ZM183.08,306.314L185.668,306.314C187.01,306.314 187.681,305.642 187.681,304.3L187.681,301.555C187.681,300.212 187.01,299.541 185.668,299.541L183.08,299.541L183.08,306.314Z" style="fill:url(#_Linear5);fill-rule:nonzero;"/>
        <path d="M192.226,306.808L192.226,301.634C192.481,301.221 192.942,301.015 193.61,301.015L194.679,301.015L194.994,301.251L194.994,301.465L193.554,301.465C193.179,301.465 192.905,301.566 192.732,301.769L192.732,306.808L192.226,306.808Z" style="fill:url(#_Linear6);fill-rule:nonzero;"/>
        <path d="M198.402,305.2L198.402,302.624C198.402,301.551 198.938,301.015 200.011,301.015L201.473,301.015C202.538,301.015 203.071,301.551 203.071,302.624L203.071,304.12L198.908,304.12L198.908,305.312C198.908,306.01 199.257,306.359 199.955,306.359L202.846,306.359L202.846,306.572L202.531,306.808L200.011,306.808C198.938,306.808 198.402,306.272 198.402,305.2ZM198.908,303.67L202.565,303.67L202.565,302.511C202.565,301.814 202.216,301.465 201.518,301.465L199.955,301.465C199.257,301.465 198.908,301.814 198.908,302.511L198.908,303.67Z" style="fill:url(#_Linear7);fill-rule:nonzero;"/>
        <path d="M208.448,306.808C207.368,306.808 206.828,306.261 206.828,305.166C206.828,304.071 207.368,303.524 208.448,303.524L210.811,303.524L210.811,302.511C210.811,301.814 210.462,301.465 209.764,301.465L207.346,301.465L207.346,301.251L207.661,301.015L209.719,301.015C210.784,301.015 211.317,301.551 211.317,302.624L211.317,306.808L208.448,306.808ZM207.334,305.312C207.334,306.01 207.683,306.359 208.381,306.359L210.811,306.359L210.811,303.974L208.381,303.974C207.683,303.974 207.334,304.322 207.334,305.02L207.334,305.312Z" style="fill:url(#_Linear8);fill-rule:nonzero;"/>
        <path d="M215.434,306.808L215.434,301.015L221.993,301.015C223.058,301.015 223.59,301.551 223.59,302.624L223.59,306.808L223.084,306.808L223.084,302.511C223.084,301.814 222.735,301.465 222.038,301.465L219.765,301.465L219.765,306.808L219.259,306.808L219.259,301.465L215.94,301.465L215.94,306.808L215.434,306.808Z" style="fill:url(#_Linear9);fill-rule:nonzero;"/>
    </g>
    <defs>
        <linearGradient id="_Linear1" x1="0" y1="0" x2="1" y2="0" gradientUnits="userSpaceOnUse" gradientTransform="matrix(60.5794,0,0,7.76226,144.674,302.927)"><stop offset="0" style="stop-color:rgb(180,0,255);stop-opacity:1"/><stop offset="1" style="stop-color:rgb(0,207,255);stop-opacity:1"/></linearGradient>
        <linearGradient id="_Linear2" x1="0" y1="0" x2="1" y2="0" gradientUnits="userSpaceOnUse" gradientTransform="matrix(60.5794,0,0,7.76226,144.674,302.927)"><stop offset="0" style="stop-color:rgb(180,0,255);stop-opacity:1"/><stop offset="1" style="stop-color:rgb(0,207,255);stop-opacity:1"/></linearGradient>
        <linearGradient id="_Linear3" x1="0" y1="0" x2="1" y2="0" gradientUnits="userSpaceOnUse" gradientTransform="matrix(60.5794,0,0,7.76226,144.674,302.927)"><stop offset="0" style="stop-color:rgb(180,0,255);stop-opacity:1"/><stop offset="1" style="stop-color:rgb(0,207,255);stop-opacity:1"/></linearGradient>
        <linearGradient id="_Linear4" x1="0" y1="0" x2="1" y2="0" gradientUnits="userSpaceOnUse" gradientTransform="matrix(60.5794,0,0,7.76226,144.674,302.927)"><stop offset="0" style="stop-color:rgb(180,0,255);stop-opacity:1"/><stop offset="1" style="stop-color:rgb(0,207,255);stop-opacity:1"/></linearGradient>
        <linearGradient id="_Linear5" x1="0" y1="0" x2="1" y2="0" gradientUnits="userSpaceOnUse" gradientTransform="matrix(60.5794,0,0,7.76226,144.674,302.927)"><stop offset="0" style="stop-color:rgb(180,0,255);stop-opacity:1"/><stop offset="1" style="stop-color:rgb(0,207,255);stop-opacity:1"/></linearGradient>
        <linearGradient id="_Linear6" x1="0" y1="0" x2="1" y2="0" gradientUnits="userSpaceOnUse" gradientTransform="matrix(60.5794,0,0,7.76226,144.674,302.927)"><stop offset="0" style="stop-color:rgb(180,0,255);stop-opacity:1"/><stop offset="1" style="stop-color:rgb(0,207,255);stop-opacity:1"/></linearGradient>
        <linearGradient id="_Linear7" x1="0" y1="0" x2="1" y2="0" gradientUnits="userSpaceOnUse" gradientTransform="matrix(60.5794,0,0,7.76226,144.674,302.927)"><stop offset="0" style="stop-color:rgb(180,0,255);stop-opacity:1"/><stop offset="1" style="stop-color:rgb(0,207,255);stop-opacity:1"/></linearGradient>
        <linearGradient id="_Linear8" x1="0" y1="0" x2="1" y2="0" gradientUnits="userSpaceOnUse" gradientTransform="matrix(60.5794,0,0,7.76226,144.674,302.927)"><stop offset="0" style="stop-color:rgb(180,0,255);stop-opacity:1"/><stop offset="1" style="stop-color:rgb(0,207,255);stop-opacity:1"/></linearGradient>
        <linearGradient id="_Linear9" x1="0" y1="0" x2="1" y2="0" gradientUnits="userSpaceOnUse" gradientTransform="matrix(60.5794,0,0,7.76226,144.674,302.927)"><stop offset="0" style="stop-color:rgb(180,0,255);stop-opacity:1"/><stop offset="1" style="stop-color:rgb(0,207,255);stop-opacity:1"/></linearGradient>
    </defs>
</svg>
